1.9Hzhigh3min_grf.mot
version=1
nRows=17
nColumns 19
inDegrees=yes
endheader
time	1_ground_force_vx	1_ground_force_vy	1_ground_force_vz	1_ground_force_px	1_ground_force_py	1_ground_force_pz	1_ground_torque_x	1_ground_torque_y	1_ground_torque_z	2_ground_force_vx	2_ground_force_vy	2_ground_force_vz	2_ground_force_px	2_ground_force_py	2_ground_force_pz	2_ground_torque_x	2_ground_torque_y	2_ground_torque_z
            0.005000	           10.084690	          176.146489	           -5.093661	           -0.219830	            0.006477	           -0.463964	           -0.009374	           -0.163729	            0.004735	           13.034209	          180.471069	           12.886335	           -0.189171	            0.005768	           -0.688639	           -0.028059	           -0.388509	           -0.027741
            0.005500	            9.627212	          172.180163	           -5.017817	           -0.220196	            0.006479	           -0.464536	           -0.015563	           -0.278340	            0.008112	           13.136569	          178.077319	           12.924681	           -0.189216	            0.005773	           -0.689867	           -0.030397	           -0.412063	           -0.029907
            0.006000	            9.445214	          168.393369	           -4.758458	           -0.219725	            0.006480	           -0.464730	           -0.017603	           -0.313826	            0.008868	           13.390051	          172.738206	           12.811671	           -0.189040	            0.005764	           -0.687217	           -0.039777	           -0.513140	           -0.038059
            0.006500	            9.216789	          164.066948	           -4.776441	           -0.219992	            0.006479	           -0.464534	           -0.017233	           -0.306763	            0.008931	           13.209216	          170.896700	           12.617467	           -0.189033	            0.005771	           -0.689248	           -0.036722	           -0.475098	           -0.035077
            0.007000	            9.126184	          160.641096	           -4.607476	           -0.219257	            0.006480	           -0.464628	           -0.016974	           -0.298784	            0.008570	           13.224523	          166.661114	           12.649283	           -0.189235	            0.005768	           -0.688668	           -0.026366	           -0.332271	           -0.025219
            0.007500	            8.301572	          156.314954	           -4.715691	           -0.218968	            0.006480	           -0.464681	           -0.015852	           -0.298486	            0.009005	           13.189553	          163.346960	           12.449763	           -0.189617	            0.005765	           -0.688274	           -0.029265	           -0.362432	           -0.027623
            0.008000	            8.072704	          153.791387	           -4.771799	           -0.219278	            0.006475	           -0.463490	           -0.015247	           -0.290459	            0.009012	           13.058226	          160.769030	           12.252912	           -0.190135	            0.005766	           -0.688947	           -0.024333	           -0.299585	           -0.022833
            0.008500	            8.119613	          149.824961	           -4.651350	           -0.219608	            0.006476	           -0.463784	           -0.008379	           -0.154614	            0.004800	           13.023360	          157.454039	           12.288033	           -0.189842	            0.005768	           -0.689245	           -0.025000	           -0.302251	           -0.023588
            0.009000	            7.708157	          145.497915	           -4.531310	           -0.218428	            0.006481	           -0.464814	           -0.011573	           -0.218444	            0.006803	           12.942247	          153.955209	           12.181732	           -0.189606	            0.005768	           -0.689022	           -0.026218	           -0.311880	           -0.024678
            0.009500	            7.295722	          142.794440	           -4.679448	           -0.218813	            0.006473	           -0.462939	           -0.015814	           -0.309521	            0.010143	           13.000354	          150.825199	           12.076686	           -0.189447	            0.005770	           -0.689287	           -0.030603	           -0.355040	           -0.028428
            0.010000	            6.838047	          139.909708	           -4.598966	           -0.218917	            0.006473	           -0.463031	           -0.015143	           -0.309838	            0.010185	           12.966735	          147.142566	           11.922781	           -0.189780	            0.005766	           -0.688489	           -0.031673	           -0.359421	           -0.029123
            0.010500	            6.701733	          134.501318	           -4.530101	           -0.218498	            0.006485	           -0.465893	           -0.011338	           -0.227541	            0.007664	           12.697681	          143.826196	           12.098786	           -0.188721	            0.005768	           -0.688211	           -0.022492	           -0.254763	           -0.021431
            0.011000	            6.335953	          132.337076	           -4.309187	           -0.218057	            0.006475	           -0.463420	           -0.007320	           -0.152885	            0.004978	           12.799130	          141.618596	           11.574652	           -0.188963	            0.005770	           -0.689015	           -0.025563	           -0.282851	           -0.023118
            0.011500	            6.061766	          128.190716	           -4.280427	           -0.218091	            0.006480	           -0.464725	           -0.007337	           -0.155152	            0.005181	           12.673243	          137.566506	           11.654113	           -0.188943	            0.005771	           -0.689232	           -0.021784	           -0.236462	           -0.020032
            0.012000	            5.420410	          125.126272	           -4.337830	           -0.217801	            0.006479	           -0.464342	           -0.009529	           -0.219967	            0.007626	           12.543930	          134.435986	           11.502218	           -0.189169	            0.005769	           -0.688695	           -0.026033	           -0.279002	           -0.023871
            0.012500	            5.420888	          121.881686	           -4.397599	           -0.217064	            0.006475	           -0.463454	           -0.008547	           -0.192174	            0.006934	           12.362389	          132.778956	           11.214816	           -0.188797	            0.005777	           -0.690680	           -0.022712	           -0.243941	           -0.020604
            0.013000	            4.825962	          118.095402	           -4.274785	           -0.217141	            0.006483	           -0.465377	           -0.015840	           -0.387617	            0.014031	           12.287401	          127.621643	           11.431098	           -0.188516	            0.005771	           -0.688726	           -0.022405	           -0.232703	           -0.020843
